<svg xmlns="http://www.w3.org/2000/svg" xmlns:xlink="http://www.w3.org/1999/xlink" id="Capa_1" x="0px" y="0px" viewBox="0 0 500 200" xml:space="preserve"><path fill="#FFFFFF" d="M445.9,17.9c-9-6.3-21.3-7.6-32.1-7.1c-9.4,0.5-18.7,2.4-25.7,4.6c-18.3,5.7-15,20.3-0.6,16.5 c14.2-3.8,46-14.2,67.5-0.1C454.8,29,453.4,23.1,445.9,17.9"></path><path fill="#FFFFFF" d="M430.1,35.9c-15.1,0-30.1,3.5-38.3,6.5c-18,6.6-13.9,21.2,0.3,16.7c9.3-3,21.4-7.3,39.3-7.9 c6.6-0.2,13.3,0.3,19.9,1.9c1.8-5.1,2.9-9.3,3.4-12.9C447.3,37,438.7,35.9,430.1,35.9"></path><path fill="#FFFFFF" d="M432.2,62.8c-14.6,0-29.1,3.5-37.1,6.5c-17.5,6.6-13.4,21.2,0.4,16.7c9-2.9,20.6-7.3,37.9-7.9 c2-0.1,4-0.1,6,0c2.2-4.2,4.6-8.8,7.1-14C442,63.2,437.1,62.8,432.2,62.8"></path><path fill="#FFFFFF" d="M486.6,85C482.1,67.7,470.4,50,470.4,50c0.3,0.5,0.6,1.1,1,1.7c-0.3-0.6-0.6-1.1-1-1.7 c1.4,4.3,3.9,15,3.8,28.4c-2.6-2.7-5.6-4.9-8.8-6.7c0.6-2.8,0.9-5.5,1-7.9c0.4-12.6-0.4-21.7-11.2-36.7c0-0.1-0.1-0.1-0.1-0.2 c0.1,0.2,0.3,0.5,0.4,0.9c0.5,1.1,1.1,3,1.4,5.7c0.2,2.2,0.2,5-0.4,8.4c-0.5,3.6-1.6,7.8-3.4,12.9c-1.2,3.2-2.6,6.8-4.5,10.7 c-0.1,0.1-0.1,0.2-0.2,0.3c-2.5,5.2-4.8,9.8-7.1,14c-6.9,12.9-12.9,21.7-18.8,31.2c-10.6,17.1,14.8,24.1,25.7,3.6 c5.5-10.3,10.2-20.9,13.5-30.4c4.9,2,8.6,4.6,11.4,7.3c-1,7.5-3,15.4-6.4,23.3c-6.1,14.1,6.4,18.1,14.2,13.1c2.6-1.5,4.5-4,5.5-7.3 C489.9,108.9,489.1,94.5,486.6,85"></path><path fill="#FFFFFF" d="M396.8,113.7v1h0.5c0.6,0,0.8-0.1,0.8-0.5c0-0.4-0.3-0.5-0.8-0.5H396.8z M398.6,114.2c0,0.4-0.3,0.7-0.7,0.8 l0.7,1.4h-0.6l-0.6-1.3h-0.6v1.3h-0.5v-3h1.1C398.2,113.4,398.6,113.7,398.6,114.2 M399,113.3c-0.4-0.4-1-0.7-1.6-0.7 c-0.6,0-1.2,0.2-1.6,0.7c-0.4,0.4-0.7,1-0.7,1.6c0,0.6,0.2,1.2,0.7,1.6c0.4,0.4,1,0.7,1.6,0.7c0.6,0,1.2-0.2,1.6-0.7 c0.4-0.4,0.7-1,0.7-1.6C399.6,114.3,399.4,113.7,399,113.3 M399.2,113.1c0.5,0.5,0.8,1.1,0.8,1.8c0,0.7-0.3,1.4-0.8,1.8 c-0.5,0.5-1.2,0.8-1.9,0.8c-0.7,0-1.3-0.3-1.8-0.8c-0.5-0.5-0.8-1.1-0.8-1.8c0-0.7,0.3-1.4,0.8-1.9c0.5-0.5,1.1-0.8,1.8-0.8 C398,112.3,398.7,112.6,399.2,113.1"></path><path fill="#FFFFFF" d="M58.1,106.8c0-3,2.4-5.4,5.4-5.4c3,0,5.4,2.4,5.4,5.4v41.7c0,3-2.4,5.4-5.4,5.4c-3,0-5.4-2.4-5.4-5.4V106.8z "></path><path fill="#FFFFFF" d="M155.6,142.5v-18h-0.4c-2.5,0-4.6-2.1-4.6-4.6c0-2.5,2.1-4.6,4.6-4.6h0.4v-4.7c0-3,2.4-5.4,5.4-5.4 c3,0,5.4,2.4,5.4,5.4v4.7h4.7c2.5,0,4.6,2.1,4.6,4.6c0,2.5-2.1,4.6-4.6,4.6h-4.7v16.2c0,2.5,1.1,3.7,3.5,3.7c0.4,0,1.1-0.1,1.3-0.1 c2.4,0,4.5,2,4.5,4.5c0,1.9-1.3,3.5-2.8,4c-2,0.8-3.8,1.1-6.2,1.1C160.1,153.9,155.6,151.3,155.6,142.5"></path><path fill="#FFFFFF" d="M191,114.6c2.3,0,4.2,0.3,6.2,1.1c1.5,0.6,2.8,2.1,2.8,4c0,2.5-2.1,4.5-4.5,4.5c-0.2,0-0.9-0.1-1.3-0.1 c-2.4,0-3.5,1.2-3.5,3.7v21c0,3-2.4,5.4-5.4,5.4c-3,0-5.4-2.4-5.4-5.4V126C179.9,117.2,184.4,114.6,191,114.6"></path><path fill="#FFFFFF" d="M230.1,134.5c0,5.6-3.7,10.3-9.8,10.3c-5.9,0-10-4.9-10-10.5v-0.1c0-5.6,3.7-10.3,9.8-10.3 c5.9,0,10,4.9,10,10.5V134.5z M220.2,114.6c-11.8,0-20.6,8.8-20.6,19.7v0.1c0,10.9,8.7,19.6,20.4,19.6c11.8,0,20.6-8.8,20.6-19.7 v-0.1C240.7,123.3,232,114.6,220.2,114.6"></path><path fill="#FFFFFF" d="M329.8,106.3c0-3.1,2.6-5,6-5c3.4,0,6,1.9,6,5v0.1c0,3.1-2.6,5.1-6,5.1c-3.4,0-6-2-6-5.1V106.3z"></path><path fill="#FFFFFF" d="M330.4,119.9c0-3,2.4-5.4,5.4-5.4c3,0,5.4,2.4,5.4,5.4v28.9c0,3-2.4,5.4-5.4,5.4c-3,0-5.4-2.4-5.4-5.4V119.9 z"></path><path fill="#FFFFFF" d="M346.8,106.6c0-3,2.4-5.4,5.4-5.4c3,0,5.4,2.4,5.4,5.4v42.2c0,3-2.4,5.4-5.4,5.4c-3,0-5.4-2.4-5.4-5.4V106.6 z"></path><path fill="#FFFFFF" d="M19.1,123.1c-2.8,0-5,2.3-5,5c0,2.8,2.3,5,5,5h0.7h25.1h0.7c2.8,0,5-2.2,5-5c0-2.8-2.3-5-5-5h-0.7H19.7H19.1 z"></path><path fill="#FFFFFF" d="M54.2,148.9c0-2.8-2.3-5-5-5h-4.3h-22h-4.3c-2.8,0-5,2.3-5,5c0,2.8,2.3,5,5,5h30.6 C51.9,153.9,54.2,151.7,54.2,148.9"></path><path fill="#FFFFFF" d="M13.8,107.8c0,2.8,2.3,5,5,5h4h22h4c2.8,0,5-2.2,5-5c0-2.8-2.3-5-5-5H18.9C16.1,102.7,13.8,105,13.8,107.8"></path><path fill="#FFFFFF" d="M279,101.4c-3,0-5.4,2.4-5.4,5.4v16.4h-18v-16.4c0-3-2.4-5.4-5.4-5.4c-3,0-5.4,2.4-5.4,5.4v41.7 c0,3,2.4,5.4,5.4,5.4c3,0,5.4-2.4,5.4-5.4v-15.9h18v15.9c0,3,2.4,5.4,5.4,5.4c3,0,5.4-2.4,5.4-5.4v-41.7 C284.4,103.8,282,101.4,279,101.4"></path><path fill="#FFFFFF" d="M324.6,119.9c0-0.2,0-0.4,0-0.5c-0.3-2.7-2.6-4.8-5.3-4.8h0c-2.2,0-4.1,1.4-5,3.3c-0.3,0.6-0.4,1.4-0.4,2.1 V137c0,5.1-2.6,7.7-6.6,7.7c-4,0-6.6-2.7-6.6-7.7v-17.1c0-0.6-0.1-1.1-0.2-1.6c-0.3-0.8-0.7-1.6-1.3-2.2c-1-1-2.3-1.6-3.8-1.6h0 c-2.8,0-5.1,2.1-5.3,4.8c0,0.2,0,0.4,0,0.5v20.5c0,0.1,0,0.2,0,0.3c0,1.1,0.1,2.1,0.3,3c1.4,7.2,8.3,10.4,16.9,10.4 c0.4,0,1.7-0.1,2.3-0.1c7.8-0.5,13.9-3.7,15.1-10.5c0.2-0.8,0.2-1.7,0.2-2.6c0-0.1,0-0.2,0-0.3c0-0.1,0-0.1,0-0.2V119.9z"></path><path fill="#FFFFFF" d="M140.2,143.3c-2.6,1.1-3.4,1.3-6,1.3c0,0,0,0,0,0c-5.9,0-9.9-4.9-10-10.4c0-5.6,4-10.4,10-10.4c0,0,0,0,0,0 c2.5,0,3.3,0.2,6,1.3c2.8,1.1,5.1,0.7,6.2-0.5c1.6-1.8,2.3-5.1-2-7.4c0,0,0,0,0,0c0,0-0.1,0-0.1,0c0,0,0,0,0,0c0,0-0.1,0-0.1-0.1 c-3-1.6-6.4-2.5-10.2-2.5c-11.7,0-20.4,8.7-20.4,19.6v0.1v0v0.1c0,10.9,8.7,19.6,20.4,19.6c3.8,0,7.2-0.9,10.2-2.5 c0,0,0.1,0,0.1-0.1c0,0,0,0,0,0c0,0,0.1,0,0.1,0c0,0,0,0,0,0c4.2-2.3,3.6-5.6,2-7.4C145.3,142.6,143,142.2,140.2,143.3"></path><path fill="#FFFFFF" d="M83.6,131.1c0.7-3.8,2.5-6.5,5.4-7.6c0.9-0.3,1.8-0.5,2.8-0.5c3.9,0,6.6,2.5,7.6,6.3 c0.2,0.6,0.3,1.2,0.4,1.8h-2.1H86.3H83.6z M88,137.8h13.9h3.2c2.8,0,5-2.1,5-5.2c0-0.8-0.1-1.6-0.2-2.4c-0.9-6.4-5.1-13.5-13.5-15.4 c-1.4-0.3-2.9-0.5-4.6-0.5c-2.9,0-5.5,0.6-7.9,1.7c-3.6,1.7-6.5,4.5-8.4,8c-1.6,2.9-2.4,6.3-2.4,10c0,0.1,0,0,0,0.2 c0.1,10.4,7.8,19.6,19.2,19.6c8.4,0,13.2-1.5,14.7-3.8c1.1-1.7,0.5-5.3-2.3-5.9c-3.6-0.8-4,1.1-10.9,1.2c-9.2,0.1-10-7.5-10-7.5h2.1 H88z"></path><path fill="#FFFFFF" d="M378.1,146.4c-3.5,0-5.9-1.7-5.9-4.7v-0.1c0-3.4,2.8-5.3,7.2-5.3c4.5,0,7.1,0.5,7.1,0.5l0,2.9 C386.5,143.7,383.1,146.4,378.1,146.4 M392.6,118.8c-2.7-2.7-6.9-4.3-12.8-4.3c-5,0-8.7,0.7-12.1,2c-1.7,0.6-2.9,2.3-2.9,4.2 c0,2.5,2,4.4,4.5,4.4c0.5,0,0.9-0.1,1.6-0.3c2.1-0.6,4.5-1.1,7.4-1.1c4.9,0,7.6,2.6,8.1,6.4c-22.4-3-24.4,6.3-24.5,11.8 c0,0.1,0,0.1,0,0.2v0.1c0,7.3,5.4,11.4,12.2,11.7c0.2,0,0.4,0,0.7,0c0,0,0.1,0,0.1,0c0,0,0,0,0,0c0.1,0,0.1,0,0.2,0 c0.2,0,0.5,0,0.7,0c0,0,0,0,0.1,0c3-0.1,7.1-0.5,10.8-3c0.7,1.7,2.4,3,4.9,3c2.9,0,5.2-2.3,5.2-5.2V131 C396.7,125.8,395.5,121.6,392.6,118.8"></path><path fill="#FFFFFF" d="M73.9,173.2h-3.2c-0.6,0-1.1-0.5-1.1-1.1c0-0.6,0.5-1.1,1.1-1.1h8.9c0.6,0,1.1,0.5,1.1,1.1 c0,0.6-0.5,1.1-1.1,1.1h-3.3v10.1c0,0.6-0.5,1.2-1.2,1.2s-1.2-0.5-1.2-1.2V173.2z"></path><path fill="#FFFFFF" d="M81.4,175.3c0-0.6,0.5-1.2,1.1-1.2c0.6,0,1.2,0.5,1.2,1.2v1c0.5-1.3,1.5-2.2,2.5-2.2c0.7,0,1.1,0.5,1.1,1.1 c0,0.6-0.4,1-0.9,1.1c-1.6,0.3-2.8,1.5-2.8,3.9v3c0,0.6-0.5,1.1-1.2,1.1c-0.6,0-1.1-0.5-1.1-1.1V175.3z"></path><path fill="#FFFFFF" d="M95.1,180.7v-0.7c-0.6-0.2-1.4-0.4-2.3-0.4c-1.5,0-2.4,0.6-2.4,1.7v0c0,1,0.9,1.5,2,1.5 C93.9,182.9,95.1,182,95.1,180.7 M88.2,181.5L88.2,181.5c0-2.2,1.7-3.3,4.2-3.3c1.1,0,1.9,0.2,2.7,0.4v-0.2c0-1.4-0.9-2.2-2.5-2.2 c-0.9,0-1.6,0.2-2.2,0.4c-0.1,0-0.2,0.1-0.4,0.1c-0.5,0-1-0.4-1-1c0-0.4,0.3-0.8,0.6-0.9c1-0.4,1.9-0.6,3.2-0.6 c1.5,0,2.6,0.4,3.3,1.1c0.7,0.7,1.1,1.8,1.1,3.1v5c0,0.6-0.5,1.1-1.1,1.1c-0.7,0-1.1-0.5-1.1-1v-0.4c-0.7,0.8-1.7,1.5-3.3,1.5 C89.8,184.6,88.2,183.5,88.2,181.5"></path><path fill="#FFFFFF" d="M100,175.3c0-0.6,0.5-1.2,1.1-1.2c0.6,0,1.2,0.5,1.2,1.2v0.5c0.6-0.9,1.6-1.8,3.1-1.8c2.3,0,3.6,1.5,3.6,3.8 v5.4c0,0.6-0.5,1.1-1.1,1.1s-1.2-0.5-1.2-1.1v-4.7c0-1.6-0.8-2.5-2.2-2.5c-1.3,0-2.3,0.9-2.3,2.5v4.6c0,0.6-0.5,1.1-1.2,1.1 c-0.6,0-1.1-0.5-1.1-1.1V175.3z"></path><path fill="#FFFFFF" d="M111.5,183.3c-0.2-0.1-0.4-0.4-0.4-0.8c0-0.5,0.4-0.9,0.9-0.9c0.2,0,0.4,0.1,0.5,0.1c1,0.6,2,1,2.9,1 c1,0,1.6-0.4,1.6-1.1v0c0-0.8-1.1-1-2.2-1.4c-1.5-0.4-3.1-1-3.1-3v0c0-1.9,1.6-3.1,3.6-3.1c1.1,0,2.2,0.3,3.2,0.8 c0.3,0.2,0.6,0.5,0.6,0.9c0,0.5-0.4,0.9-1,0.9c-0.2,0-0.3,0-0.5-0.1c-0.8-0.4-1.7-0.7-2.4-0.7c-0.9,0-1.4,0.4-1.4,1v0 c0,0.7,1.1,1,2.3,1.4c1.5,0.5,3.1,1.1,3.1,2.9v0c0,2.1-1.6,3.2-3.7,3.2C114.1,184.5,112.7,184.1,111.5,183.3"></path><path fill="#FFFFFF" d="M121.5,175.3c0-0.6,0.5-1.2,1.1-1.2s1.2,0.5,1.2,1.2v0.5c0.6-0.9,1.5-1.7,3.1-1.7c1.4,0,2.5,0.7,3,1.8 c0.8-1.1,1.9-1.8,3.4-1.8c2.2,0,3.5,1.4,3.5,3.8v5.4c0,0.6-0.5,1.1-1.1,1.1c-0.6,0-1.2-0.5-1.2-1.1v-4.7c0-1.6-0.7-2.5-2-2.5 c-1.3,0-2.2,0.9-2.2,2.5v4.6c0,0.6-0.5,1.1-1.1,1.1c-0.6,0-1.2-0.5-1.2-1.1v-4.7c0-1.6-0.8-2.4-2-2.4c-1.3,0-2.2,1-2.2,2.5v4.6 c0,0.6-0.5,1.1-1.2,1.1c-0.6,0-1.1-0.5-1.1-1.1V175.3z"></path><path fill="#FFFFFF" d="M139.7,175.3c0-0.6,0.5-1.2,1.1-1.2c0.6,0,1.2,0.5,1.2,1.2v8c0,0.6-0.5,1.1-1.2,1.1c-0.6,0-1.1-0.5-1.1-1.1 V175.3z M139.6,171.6c0-0.7,0.6-1.1,1.3-1.1c0.7,0,1.3,0.4,1.3,1.1v0.1c0,0.7-0.6,1.1-1.3,1.1c-0.7,0-1.3-0.5-1.3-1.1V171.6z"></path><path fill="#FFFFFF" d="M145.6,181.6v-5.3h-0.4c-0.6,0-1-0.4-1-1c0-0.6,0.4-1,1-1h0.4v-1.7c0-0.6,0.5-1.1,1.2-1.1 c0.6,0,1.1,0.5,1.1,1.1v1.7h1.8c0.6,0,1,0.4,1,1c0,0.6-0.5,1-1,1h-1.8v4.9c0,0.9,0.5,1.3,1.2,1.3c0.3,0,0.5-0.1,0.6-0.1 c0.5,0,1,0.4,1,1c0,0.4-0.3,0.8-0.6,0.9c-0.5,0.2-1,0.3-1.6,0.3C146.8,184.5,145.6,183.8,145.6,181.6"></path><path fill="#FFFFFF" d="M153.1,175.3c0-0.6,0.5-1.2,1.1-1.2c0.6,0,1.2,0.5,1.2,1.2v8c0,0.6-0.5,1.1-1.2,1.1c-0.6,0-1.1-0.5-1.1-1.1 V175.3z M152.9,171.6c0-0.7,0.6-1.1,1.3-1.1c0.7,0,1.3,0.4,1.3,1.1v0.1c0,0.7-0.6,1.1-1.3,1.1c-0.7,0-1.3-0.5-1.3-1.1V171.6z"></path><path fill="#FFFFFF" d="M158.4,175.3c0-0.6,0.5-1.2,1.1-1.2c0.6,0,1.2,0.5,1.2,1.2v0.5c0.6-0.9,1.5-1.7,3.1-1.7c1.4,0,2.5,0.7,3,1.8 c0.8-1.1,1.9-1.8,3.4-1.8c2.2,0,3.5,1.4,3.5,3.8v5.4c0,0.6-0.5,1.1-1.1,1.1c-0.6,0-1.2-0.5-1.2-1.1v-4.7c0-1.6-0.7-2.5-2-2.5 c-1.3,0-2.2,0.9-2.2,2.5v4.6c0,0.6-0.5,1.1-1.1,1.1c-0.6,0-1.2-0.5-1.2-1.1v-4.7c0-1.6-0.8-2.4-2-2.4s-2.2,1-2.2,2.5v4.6 c0,0.6-0.5,1.1-1.2,1.1c-0.6,0-1.1-0.5-1.1-1.1V175.3z"></path><path fill="#FFFFFF" d="M184.4,179.4L184.4,179.4c0-1.8-1.3-3.3-3.1-3.3c-1.8,0-3,1.4-3,3.2v0c0,1.8,1.3,3.2,3.1,3.2 C183.3,182.6,184.4,181.1,184.4,179.4 M176,179.4L176,179.4c0-2.9,2.3-5.3,5.4-5.3c3.1,0,5.4,2.3,5.4,5.2v0c0,2.9-2.3,5.2-5.4,5.2 C178.3,184.6,176,182.2,176,179.4"></path><path fill="#FFFFFF" d="M188.7,183.3c-0.2-0.1-0.4-0.4-0.4-0.8c0-0.5,0.4-0.9,0.9-0.9c0.2,0,0.4,0.1,0.5,0.1c1,0.6,2,1,2.9,1 c1,0,1.6-0.4,1.6-1.1v0c0-0.8-1.1-1-2.2-1.4c-1.5-0.4-3.1-1-3.1-3v0c0-1.9,1.6-3.1,3.6-3.1c1.1,0,2.2,0.3,3.2,0.8 c0.3,0.2,0.6,0.5,0.6,0.9c0,0.5-0.4,0.9-1,0.9c-0.2,0-0.3,0-0.5-0.1c-0.8-0.4-1.7-0.7-2.4-0.7c-0.9,0-1.4,0.4-1.4,1v0 c0,0.7,1.1,1,2.3,1.4c1.5,0.5,3.1,1.1,3.1,2.9v0c0,2.1-1.6,3.2-3.7,3.2C191.3,184.5,189.9,184.1,188.7,183.3"></path><path fill="#FFFFFF" d="M210.9,182.3c1.6,0,2.6-0.6,2.6-1.8v0c0-1.1-0.9-1.8-2.7-1.8H207v3.7H210.9z M210.2,176.6 c1.5,0,2.5-0.6,2.5-1.8v0c0-1-0.8-1.7-2.3-1.7H207v3.5H210.2z M204.7,172.2c0-0.7,0.5-1.2,1.2-1.2h4.8c1.5,0,2.7,0.4,3.5,1.2 c0.6,0.6,0.9,1.3,0.9,2.2v0c0,1.6-0.9,2.5-1.9,3c1.6,0.5,2.6,1.4,2.6,3.2v0c0,2.4-2,3.7-4.9,3.7h-5c-0.7,0-1.2-0.5-1.2-1.2V172.2z"></path><path fill="#FFFFFF" d="M227.2,183.3c0,0.6-0.5,1.1-1.2,1.1c-0.6,0-1.2-0.5-1.2-1.1v-0.5c-0.6,1-1.6,1.8-3.1,1.8 c-2.3,0-3.6-1.5-3.6-3.9v-5.4c0-0.6,0.5-1.2,1.1-1.2c0.6,0,1.2,0.5,1.2,1.2v4.7c0,1.6,0.8,2.4,2.2,2.4c1.3,0,2.3-0.9,2.3-2.5v-4.6 c0-0.6,0.5-1.2,1.2-1.2c0.6,0,1.2,0.5,1.2,1.2V183.3z"></path><path fill="#FFFFFF" d="M237,178.6c-0.2-1.5-1-2.6-2.6-2.6c-1.4,0-2.4,1.1-2.6,2.6H237z M234.7,184.6c-2.9,0-5.2-2.1-5.2-5.2v0 c0-2.9,2-5.2,4.9-5.2c3.2,0,4.8,2.6,4.8,5c0,0.6-0.5,1.1-1.1,1.1h-6.3c0.2,1.6,1.4,2.6,2.9,2.6c1,0,1.7-0.3,2.4-0.9 c0.2-0.1,0.3-0.2,0.6-0.2c0.5,0,0.9,0.4,0.9,0.9c0,0.3-0.1,0.5-0.3,0.7C237.4,184.1,236.3,184.6,234.7,184.6"></path><path fill="#FFFFFF" d="M241.6,175.3c0-0.6,0.5-1.2,1.1-1.2c0.6,0,1.2,0.5,1.2,1.2v0.5c0.6-0.9,1.6-1.8,3.1-1.8 c2.3,0,3.6,1.5,3.6,3.8v5.4c0,0.6-0.5,1.1-1.1,1.1c-0.6,0-1.2-0.5-1.2-1.1v-4.7c0-1.6-0.8-2.5-2.2-2.5c-1.3,0-2.3,0.9-2.3,2.5v4.6 c0,0.6-0.5,1.1-1.2,1.1c-0.6,0-1.1-0.5-1.1-1.1V175.3z"></path><path fill="#FFFFFF" d="M259.7,180.7v-0.7c-0.6-0.2-1.4-0.4-2.3-0.4c-1.5,0-2.4,0.6-2.4,1.7v0c0,1,0.9,1.5,2,1.5 C258.6,182.9,259.7,182,259.7,180.7 M252.8,181.5L252.8,181.5c0-2.2,1.7-3.3,4.2-3.3c1.1,0,1.9,0.2,2.7,0.4v-0.2 c0-1.4-0.9-2.2-2.5-2.2c-0.9,0-1.6,0.2-2.2,0.4c-0.1,0-0.2,0.1-0.4,0.1c-0.5,0-1-0.4-1-1c0-0.4,0.3-0.8,0.6-0.9 c1-0.4,1.9-0.6,3.2-0.6c1.5,0,2.6,0.4,3.3,1.1c0.7,0.7,1.1,1.8,1.1,3.1v5c0,0.6-0.5,1.1-1.1,1.1c-0.7,0-1.1-0.5-1.1-1v-0.4 c-0.7,0.8-1.7,1.5-3.3,1.5C254.5,184.6,252.8,183.5,252.8,181.5"></path><path fill="#FFFFFF" d="M270.7,183.2v-11c0-0.7,0.5-1.2,1.2-1.2h7.8c0.6,0,1,0.5,1,1c0,0.6-0.5,1-1,1h-6.6v3.5h5.7 c0.6,0,1,0.5,1,1.1c0,0.6-0.5,1-1,1h-5.7v3.6h6.7c0.6,0,1,0.5,1,1c0,0.6-0.5,1-1,1h-7.9C271.2,184.4,270.7,183.8,270.7,183.2"></path><path fill="#FFFFFF" d="M283.3,175.3c0-0.6,0.5-1.2,1.1-1.2c0.6,0,1.2,0.5,1.2,1.2v0.5c0.6-0.9,1.6-1.8,3.1-1.8 c2.3,0,3.6,1.5,3.6,3.8v5.4c0,0.6-0.5,1.1-1.1,1.1s-1.2-0.5-1.2-1.1v-4.7c0-1.6-0.8-2.5-2.2-2.5c-1.3,0-2.3,0.9-2.3,2.5v4.6 c0,0.6-0.5,1.1-1.2,1.1c-0.6,0-1.1-0.5-1.1-1.1V175.3z"></path><path fill="#FFFFFF" d="M302,178.6c-0.2-1.5-1-2.6-2.6-2.6c-1.4,0-2.4,1.1-2.6,2.6H302z M299.7,184.6c-2.9,0-5.2-2.1-5.2-5.2v0 c0-2.9,2-5.2,4.9-5.2c3.2,0,4.8,2.6,4.8,5c0,0.6-0.5,1.1-1.1,1.1h-6.3c0.2,1.6,1.4,2.6,2.9,2.6c1,0,1.7-0.3,2.4-0.9 c0.2-0.1,0.3-0.2,0.6-0.2c0.5,0,0.9,0.4,0.9,0.9c0,0.3-0.1,0.5-0.3,0.7C302.4,184.1,301.3,184.6,299.7,184.6"></path><path fill="#FFFFFF" d="M306.7,175.3c0-0.6,0.5-1.2,1.1-1.2c0.6,0,1.2,0.5,1.2,1.2v1c0.5-1.3,1.5-2.2,2.5-2.2c0.7,0,1.1,0.5,1.1,1.1 c0,0.6-0.4,1-0.9,1.1c-1.6,0.3-2.8,1.5-2.8,3.9v3c0,0.6-0.5,1.1-1.2,1.1c-0.6,0-1.1-0.5-1.1-1.1V175.3z"></path><path fill="#FFFFFF" d="M321.9,178.8L321.9,178.8c0-1.7-1.4-2.8-3-2.8c-1.6,0-2.9,1.1-2.9,2.8v0c0,1.6,1.3,2.8,2.9,2.8 C320.5,181.6,321.9,180.5,321.9,178.8 M314.9,186.5c-0.4-0.2-0.6-0.5-0.6-0.9c0-0.5,0.4-1,1-1c0.2,0,0.3,0,0.4,0.1 c0.9,0.5,1.9,0.8,3.1,0.8c2.1,0,3.2-1.1,3.2-3.1v-0.8c-0.8,1.1-1.9,1.8-3.5,1.8c-2.4,0-4.6-1.8-4.6-4.7v0c0-3,2.2-4.7,4.6-4.7 c1.7,0,2.7,0.8,3.5,1.7v-0.5c0-0.6,0.5-1.1,1.1-1.1c0.6,0,1.2,0.5,1.2,1.2v7c0,1.7-0.4,3-1.3,3.8c-0.9,0.9-2.3,1.4-4.1,1.4 C317.3,187.4,316.1,187.1,314.9,186.5"></path><path fill="#FFFFFF" d="M327.7,172.7c0-0.1,0.1-0.3,0.2-0.4l1.1-1.7c0.2-0.3,0.5-0.6,0.9-0.6c0.6,0,1.4,0.4,1.4,0.7 c0,0.2-0.1,0.4-0.3,0.6l-1.3,1.2c-0.5,0.4-0.8,0.5-1.4,0.5C328,173.1,327.7,173,327.7,172.7 M327.2,175.3c0-0.6,0.5-1.2,1.1-1.2 c0.6,0,1.2,0.5,1.2,1.2v8c0,0.6-0.5,1.1-1.2,1.1c-0.6,0-1.1-0.5-1.1-1.1V175.3z"></path><path fill="#FFFFFF" d="M338.8,180.7v-0.7c-0.6-0.2-1.4-0.4-2.3-0.4c-1.5,0-2.4,0.6-2.4,1.7v0c0,1,0.9,1.5,2,1.5 C337.6,182.9,338.8,182,338.8,180.7 M331.9,181.5L331.9,181.5c0-2.2,1.7-3.3,4.2-3.3c1.1,0,1.9,0.2,2.7,0.4v-0.2 c0-1.4-0.9-2.2-2.5-2.2c-0.9,0-1.6,0.2-2.2,0.4c-0.1,0-0.2,0.1-0.4,0.1c-0.5,0-1-0.4-1-1c0-0.4,0.3-0.8,0.6-0.9 c1-0.4,1.9-0.6,3.2-0.6c1.5,0,2.6,0.4,3.3,1.1c0.7,0.7,1.1,1.8,1.1,3.1v5c0,0.6-0.5,1.1-1.1,1.1c-0.7,0-1.1-0.5-1.1-1v-0.4 c-0.7,0.8-1.7,1.5-3.3,1.5C333.6,184.6,331.9,183.5,331.9,181.5"></path></svg>